<svg id="artwork" xmlns="http://www.w3.org/2000/svg" fill="none" viewBox="0 0 694.24 153.56">
  <path fill="#1F2357" d="M452.25,3.41h6.52l16.27,41.33h-6.09l-5.09-12.72h-16.91c-1.7,4.24-3.29,8.48-4.98,12.72h-5.99l16.27-41.33ZM461.84,26.57c-2.07-5.19-4.29-10.92-6.31-16.38h-.11l-6.41,16.38h12.83Z"/>
  <path fill="#1F2357" d="M477.9,2.35h5.41v42.39h-5.41V2.35Z"/>
  <path fill="#1F2357" d="M489.29,2.35h5.41v42.39h-5.41V2.35Z"/>
  <path fill="#1F2357" d="M498.99,30.18c0-9.12,6.09-15.69,14.57-15.69,6.41,0,13.78,3.87,13.78,15.16v1.75h-22.89c.37,5.88,4.35,9.43,9.43,9.43,4.19,0,7.26-2.54,8.74-6.2l4.98,1.96c-2.07,5.46-7.21,9.06-13.73,9.06-8.53,0-14.89-6.2-14.89-15.47ZM521.83,27.42c-.32-6.09-4.4-8.27-8.32-8.27-4.77,0-8,3.39-8.8,8.27h17.12Z"/>
  <path fill="#1F2357" d="M531.29,48.72l4.88-1.7c1.43,3.6,4.13,5.62,8.64,5.62,4.98,0,8.8-2.86,8.8-11.08v-2.54h-.11c-2.17,3.92-5.94,5.62-9.91,5.62-8.43,0-13.62-6.78-13.62-15.05,0-8.85,5.88-15.1,13.46-15.1,4.56,0,8.21,2.28,10.17,5.94h.11v-5.09h5.3v26.07c0,11.98-6.41,15.85-14.1,15.85-5.67,0-11.18-1.96-13.62-8.53ZM544.54,39.61c5.14,0,9.17-4.45,9.17-10.12s-4.03-9.96-9.17-9.96-8.96,4.4-8.96,9.96,3.76,10.12,8.96,10.12Z"/>
  <path fill="#1F2357" d="M567.91,1.82c2.07,0,3.66,1.7,3.66,3.66,0,2.17-1.59,3.82-3.66,3.82-2.17,0-3.76-1.64-3.76-3.82,0-1.96,1.59-3.66,3.76-3.66ZM565.15,15.34h5.41v29.41h-5.41V15.34Z"/>
  <path fill="#1F2357" d="M574.64,37.54c0-5.51,4.72-7.79,10.12-8.9,5.99-1.22,9.06-1.43,9.06-4.5,0-2.76-2.44-5.19-6.2-5.19-3.29,0-5.88,1.96-6.89,5.46l-5.09-1.7c1.75-5.88,7-8.21,12.24-8.21,6.25,0,11.39,3.18,11.39,10.12v10.97c0,4.82.37,6.89.95,9.17h-5.35c-.53-1.7-.69-3.18-.69-5.03h-.11c-1.7,3.44-5.19,5.94-9.86,5.94-4.98,0-9.59-2.65-9.59-8.11ZM585.61,41.41c5.09,0,8.21-4.61,8.21-8.11v-3.23c-1.59.95-3.5,1.54-6.41,2.12-2.86.58-6.89,1.75-6.89,5.14,0,2.6,2.01,4.08,5.09,4.08Z"/>
  <path fill="#1F2357" d="M605.17,15.34h5.3v5.03h.11c2.23-4.08,5.83-5.88,9.8-5.88,5.3,0,10.49,3.29,10.49,11.76v18.5h-5.41v-16.11c0-5.72-2.44-9.06-6.84-9.06-4.88,0-8.05,3.97-8.05,9.38v15.79h-5.41V15.34Z"/>
  <path fill="#1F2357" d="M634.88,30.12c0-9.43,6.31-15.63,14.84-15.63,5.78,0,10.97,2.86,13.2,8.74l-5.09,2.01c-1.33-3.76-4.45-5.67-8.21-5.67-5.51,0-9.11,4.5-9.11,10.49,0,6.36,4.08,10.55,9.43,10.55,4.29,0,7.47-2.6,9.01-6.57l4.98,1.96c-2.23,6.15-7.53,9.65-14.1,9.65-8.58,0-14.94-6.09-14.94-15.53Z"/>
  <path fill="#1F2357" d="M665.62,30.18c0-9.12,6.09-15.69,14.57-15.69,6.41,0,13.78,3.87,13.78,15.16v1.75h-22.89c.37,5.88,4.35,9.43,9.43,9.43,4.19,0,7.26-2.54,8.74-6.2l4.98,1.96c-2.07,5.46-7.21,9.06-13.73,9.06-8.53,0-14.89-6.2-14.89-15.47ZM688.46,27.42c-.32-6.09-4.4-8.27-8.32-8.27-4.77,0-8,3.39-8.8,8.27h17.12Z"/>
  <path fill="#1F2357" d="M436.98,77.19c0-13.25,9.43-21.62,20.77-21.62,8.43,0,15.9,4.61,18.6,12.51l-5.25,2.12c-2.33-5.67-7.15-9.27-13.3-9.27-8.05,0-14.84,6.09-14.84,16.38,0,11.39,8.27,16,15.42,16s12.51-4.77,13.35-11.55h-12.77v-4.77h18.44v20.77h-4.45c-.11-2.6-.16-5.3-.26-7.9h-.27c-2.86,5.56-7.9,8.8-15.05,8.8-11.92,0-20.4-8.9-20.4-21.46Z"/>
  <path fill="#1F2357" d="M483.41,68.34h5.3v5.35h.21c1.48-3.5,4.77-6.2,8.9-6.2,1.01,0,2.07.16,3.13.58v5.94c-1.11-.42-2.7-.64-3.6-.64-6.52,0-8.53,6.31-8.53,11.45v12.93h-5.41v-29.41Z"/>
  <path fill="#1F2357" d="M501.57,83.12c0-9.17,6.15-15.63,15-15.63s14.89,6.47,14.89,15.63-6.15,15.53-14.89,15.53-15-6.36-15-15.53ZM516.57,93.61c5.46,0,9.22-4.34,9.22-10.49s-3.76-10.55-9.22-10.55-9.33,4.35-9.33,10.55,3.76,10.49,9.33,10.49Z"/>
  <path fill="#1F2357" d="M535.39,86.78v-18.44h5.41v16.53c0,6.09,2.97,8.74,6.68,8.74,4.93,0,7.68-4.5,7.68-9.06v-16.22h5.41v20.24c0,4.88.37,6.89.95,9.17h-5.41c-.48-1.91-.69-3.34-.64-4.56h-.11c-1.91,3.6-5.09,5.46-9.38,5.46-5.83,0-10.6-3.45-10.6-11.87Z"/>
  <path fill="#1F2357" d="M566.78,68.34h5.3v5.35h.11c2.54-4.24,6.25-6.2,10.44-6.2,7.9,0,13.2,6.73,13.2,15.47,0,9.59-6.2,15.69-13.51,15.69-4.66,0-8.16-2.49-10.12-5.78v16.53h-5.41v-41.07ZM581.25,93.61c5.19,0,8.96-4.5,8.96-10.55s-3.82-10.49-8.96-10.49-9.17,4.29-9.17,10.55,4.08,10.49,9.17,10.49Z"/>
  <path fill="#1F2357" d="M611.51,88.05c0-5.62,4.24-9.11,8.53-11.87-2.65-2.86-5.56-6.57-5.56-10.81,0-5.46,4.5-9.8,10.86-9.8,6.78,0,10.7,4.98,10.7,9.91s-4.19,8.74-8.27,11.34l7.42,7.79c1.06-2.28,1.85-4.88,2.49-7.63l5.09,1.06c-.95,3.87-2.23,7.42-3.82,10.39l8.9,9.27h-7l-4.98-5.14c-3.07,3.82-6.94,6.09-11.87,6.09-6.89,0-12.51-4.03-12.51-10.6ZM624.34,93.67c3.34,0,5.99-1.86,8-4.72l-9.12-9.38c-3.34,2.17-6.09,4.29-6.09,7.84,0,3.82,3.18,6.25,7.21,6.25ZM624.71,73.58c3.5-2.38,5.67-4.29,5.67-7.74s-2.23-5.41-5.19-5.41c-2.81,0-4.98,1.85-4.98,4.93s2.12,5.67,4.5,8.21Z"/>
  <path fill="#1F2357" d="M436.88,109.41h15.16c5.56,0,13.94,2.86,13.94,12.67s-8.58,13.14-13.41,13.14h-10.02v15.53h-5.67v-41.33ZM451.18,129.76c4.61,0,8.8-2.07,8.8-7.58s-4.4-7.53-8.96-7.53h-8.48v15.1h8.64Z"/>
  <path fill="#1F2357" d="M469.13,139.78v-18.44h5.41v16.53c0,6.09,2.97,8.74,6.68,8.74,4.93,0,7.68-4.5,7.68-9.06v-16.22h5.41v20.24c0,4.88.37,6.89.95,9.17h-5.41c-.48-1.91-.69-3.34-.64-4.56h-.11c-1.91,3.6-5.09,5.46-9.38,5.46-5.83,0-10.6-3.45-10.6-11.87Z"/>
  <path fill="#1F2357" d="M500.51,121.34h5.3v5.35h.21c1.48-3.5,4.77-6.2,8.9-6.2,1.01,0,2.07.16,3.13.58v5.94c-1.11-.42-2.7-.64-3.6-.64-6.52,0-8.53,6.31-8.53,11.45v12.93h-5.41v-29.41Z"/>
  <path fill="#1F2357" d="M518.72,143.38l4.98-1.59c1.43,3.5,4.5,5.41,7.42,5.41,2.12,0,5.35-1.01,5.35-4.19,0-2.76-2.65-3.6-5.25-4.35l-2.97-.85c-3.18-.95-8.16-2.91-8.16-8.64s4.93-8.69,10.33-8.69,9.54,3.18,10.81,7.31l-5.03,1.7c-.85-2.38-2.81-4.56-6.04-4.56-2.7,0-4.66,1.48-4.66,3.87,0,2.97,3.45,4.08,6.04,4.82l2.49.74c3.02.85,8.11,2.33,8.11,8.05,0,5.41-4.4,9.22-10.97,9.22s-10.97-3.29-12.45-8.27Z"/>
  <path fill="#1F2357" d="M545.81,139.78v-18.44h5.41v16.53c0,6.09,2.97,8.74,6.68,8.74,4.93,0,7.68-4.5,7.68-9.06v-16.22h5.41v20.24c0,4.88.37,6.89.95,9.17h-5.41c-.48-1.91-.69-3.34-.64-4.56h-.11c-1.91,3.6-5.09,5.46-9.38,5.46-5.83,0-10.6-3.45-10.6-11.87Z"/>
  <path fill="#1F2357" d="M575.15,143.54c0-5.51,4.72-7.79,10.12-8.9,5.99-1.22,9.06-1.43,9.06-4.5,0-2.76-2.44-5.19-6.2-5.19-3.29,0-5.88,1.96-6.89,5.46l-5.09-1.7c1.75-5.88,7-8.21,12.24-8.21,6.25,0,11.39,3.18,11.39,10.12v10.97c0,4.82.37,6.89.95,9.17h-5.35c-.53-1.7-.69-3.18-.69-5.03h-.11c-1.7,3.44-5.19,5.94-9.86,5.94-4.98,0-9.59-2.65-9.59-8.11ZM586.12,147.41c5.09,0,8.21-4.61,8.21-8.11v-3.23c-1.59.95-3.5,1.54-6.41,2.12-2.86.58-6.89,1.75-6.89,5.14,0,2.6,2.01,4.08,5.09,4.08Z"/>
  <path fill="#1F2357" d="M605.68,121.34h5.3v5.03h.11c2.23-4.08,5.83-5.88,9.8-5.88,5.3,0,10.49,3.29,10.49,11.76v18.5h-5.41v-16.11c0-5.72-2.44-9.06-6.84-9.06-4.88,0-8.05,3.97-8.05,9.38v15.79h-5.41v-29.41Z"/>
  <path fill="#1F2357" d="M639.39,141.69v-15.47h-5.83v-4.88h5.83v-8.53h5.35v8.53h8.53v4.88h-8.53v13.67c0,3.07,0,6.89,4.13,6.89,1.33,0,2.86-.42,4.4-1.33v4.93c-1.48.85-3.5,1.27-5.46,1.27-8.43,0-8.43-6.73-8.43-9.96Z"/>
  <path fill="#1F2357" d="M57.23,3.02h27.39l57.04,147.32h-25.31c-5.48-14.17-11.14-28.14-16.62-42.31h-58.55c-5.48,14.17-10.77,28.14-16.24,42.31H0L57.23,3.02ZM91.23,85.18c-6.04-15.68-13.03-33.62-20.4-53.64h-.38l-20.78,53.64h41.55Z"/>
  <path fill="#1F2357" d="M137.86,77.06C137.86,29.28,171.86,0,212.28,0,243.44,0,269.51,17.57,279.14,45.33l-21.91,8.88c-7.93-19.08-23.42-31.73-44.95-31.73-27.2,0-49.49,20.4-49.49,55.15,0,38.91,28.52,53.45,51.75,53.45s41.18-14.54,44.39-36.08h-42.5v-19.64h66.3v74.98h-18.51l-1.13-25.5h-.94c-10.39,18.32-27.58,28.71-51.75,28.71-42.31,0-72.53-31.73-72.53-76.5Z"/>
  <path fill="#1F2357" d="M300.91,3.02h55.34c16.24,0,50.24,7.56,50.24,45.9s-34.56,47.6-48.92,47.6h-32.87v53.83h-23.8V3.02ZM352.29,73.47c13.79,0,29.28-5.29,29.28-24.37s-15.68-24.18-29.47-24.18h-27.39v48.54h27.58Z"/>
</svg>
